<svg xmlns="http://www.w3.org/2000/svg" width="27" height="24" viewBox="0 0 27 24" fill="none">
    <path
        d="M11.0699 21.697C11.0699 22.1349 10.9401 22.563 10.6968 22.927C10.4535 23.2911 10.1077 23.5749 9.70318 23.7425C9.29863 23.91 8.85347 23.9539 8.424 23.8685C7.99453 23.783 7.60004 23.5722 7.2904 23.2625C6.98077 22.9529 6.76991 22.5584 6.68449 22.1289C6.59906 21.6995 6.6429 21.2543 6.81047 20.8498C6.97804 20.4452 7.26182 20.0994 7.6259 19.8562C7.98999 19.6129 8.41804 19.483 8.85593 19.483C9.44311 19.483 10.0062 19.7163 10.4214 20.1315C10.8366 20.5467 11.0699 21.1098 11.0699 21.697ZM20.3686 19.483C19.9307 19.483 19.5027 19.6129 19.1386 19.8562C18.7745 20.0994 18.4907 20.4452 18.3232 20.8498C18.1556 21.2543 18.1118 21.6995 18.1972 22.1289C18.2826 22.5584 18.4935 22.9529 18.8031 23.2625C19.1127 23.5722 19.5072 23.783 19.9367 23.8685C20.3662 23.9539 20.8113 23.91 21.2159 23.7425C21.6204 23.5749 21.9662 23.2911 22.2095 22.927C22.4528 22.563 22.5826 22.1349 22.5826 21.697C22.5826 21.1098 22.3494 20.5467 21.9342 20.1315C21.5189 19.7163 20.9558 19.483 20.3686 19.483ZM26.0663 6.14712L23.0453 15.9661C22.8525 16.6011 22.46 17.157 21.9261 17.5513C21.3923 17.9455 20.7456 18.1571 20.0819 18.1546H9.18027C8.50712 18.1525 7.8528 17.9322 7.31535 17.5269C6.77791 17.1216 6.38628 16.553 6.19915 15.9064L2.41435 2.65678H1.32839C0.976078 2.65678 0.638197 2.51682 0.389076 2.2677C0.139955 2.01858 0 1.6807 0 1.32839C0 0.976078 0.139955 0.638197 0.389076 0.389076C0.638197 0.139955 0.976078 0 1.32839 0H2.74755C3.22836 0.0014854 3.69573 0.158833 4.07955 0.44844C4.46336 0.738046 4.74292 1.1443 4.87629 1.60624L5.68329 4.42796H24.7966C25.0045 4.42795 25.2095 4.47673 25.3951 4.57037C25.5807 4.66402 25.7417 4.79993 25.8652 4.96716C25.9888 5.13439 26.0713 5.32827 26.1062 5.53321C26.1411 5.73815 26.1275 5.94842 26.0663 6.14712ZM22.9977 7.08474H6.44158L8.75408 15.1768C8.78056 15.2694 8.83649 15.3508 8.91339 15.4088C8.9903 15.4667 9.08399 15.498 9.18027 15.4979H20.0819C20.1767 15.4981 20.269 15.4678 20.3453 15.4116C20.4217 15.3555 20.4779 15.2763 20.5059 15.1857L22.9977 7.08474Z"
        fill="black" />
</svg>