<svg width="17" height="16" viewBox="0 0 17 16" fill="none" xmlns="http://www.w3.org/2000/svg">
<g id="tabler:copy">
<g id="Group">
<path id="Vector" d="M6.0957 6.97616C6.0957 6.63425 6.23152 6.30635 6.47328 6.06459C6.71505 5.82283 7.04294 5.68701 7.38485 5.68701H12.5414C12.8833 5.68701 13.2112 5.82283 13.453 6.06459C13.6947 6.30635 13.8306 6.63425 13.8306 6.97616V12.1327C13.8306 12.4746 13.6947 12.8025 13.453 13.0443C13.2112 13.2861 12.8833 13.4219 12.5414 13.4219H7.38485C7.04294 13.4219 6.71505 13.2861 6.47328 13.0443C6.23152 12.8025 6.0957 12.4746 6.0957 12.1327V6.97616Z" stroke="#00162A" stroke-width="1.28914" stroke-linecap="round" stroke-linejoin="round"/>
<path id="Vector_2" d="M11.2524 5.68669V4.39754C11.2524 4.05564 11.1166 3.72774 10.8749 3.48598C10.6331 3.24422 10.3052 3.1084 9.9633 3.1084H4.80672C4.46482 3.1084 4.13692 3.24422 3.89516 3.48598C3.6534 3.72774 3.51758 4.05564 3.51758 4.39754V9.55412C3.51758 9.89602 3.6534 10.2239 3.89516 10.4657C4.13692 10.7074 4.46482 10.8433 4.80672 10.8433H6.09587" stroke="#00162A" stroke-width="1.28914" stroke-linecap="round" stroke-linejoin="round"/>
</g>
</g>
</svg>
